# xmcd
#
# Track frame offsets:
#	150
#	14516
#	31704
#	47828
#	64169
#	89599
#	106353
#	129089
#	146043
#	171032
#	181670
#	200162
#	214599
#	230908
#	245674
#	261758
#	275049
#	289924
#	311912
#
# Disc length: 4410 seconds
#
# Revision: 1
# Processed by: cddbd v1.5.2PL0 Copyright (c) Steve Scherf et al.
# Submitted via: audiograbber 1.83.01
#
DISCID=25113813
DTITLE=North Harris County Dulcimer Society - Pickin' in Texas
DYEAR=2008
DGENRE=Country
TTITLE0=Yellow Rose of Texas
TTITLE1=Julianne Johnson
TTITLE2=Huntin' the Buffalo
TTITLE3=Where the Soul Never Dies
TTITLE4=Wayfaring Stranger
TTITLE5=Barlow's Knife
TTITLE6=Storms on the Ocean
TTITLE7=Hangman's Reel
TTITLE8=Life's Railway to Heaven
TTITLE9=Ceildh
TTITLE10=Sandy Boys
TTITLE11=By the Side of the Road
TTITLE12=Ridin' on a Load of Hay/Pigtown Fling
TTITLE13=Sweet Pepper
TTITLE14=Leaving Lismoor
TTITLE15=Carter Creek Stomp
TTITLE16=Shove that Pig's Foot a Little Farther in the Fire
TTITLE17=When the Fiddler has Played his Last Waltz for the Night
TTITLE18=John Stinson's #2
EXTD=
EXTT0=
EXTT1=
EXTT2=
EXTT3=
EXTT4=
EXTT5=
EXTT6=
EXTT7=
EXTT8=
EXTT9=
EXTT10=
EXTT11=
EXTT12=
EXTT13=
EXTT14=
EXTT15=
EXTT16=
EXTT17=
EXTT18=
PLAYORDER=
